<svg width="100%" height="100%" viewBox="0 0 485 463" version="1.1" xmlns="http://www.w3.org/2000/svg">
  <style>
    .mark {
      fill: #795b83;
    }

    @media (prefers-color-scheme: dark) {
      .mark {
        fill: #ffffff;
      }
    }
  </style>
  <path class="mark" d="M402.738,432.95C373.528,425.54 348.228,404.03 327.088,379.29C302.058,350 281.108,314.26 255.518,285.03C243.968,271.86 231.478,260 217.238,250.66C216.888,250.43 216.518,250.2 216.158,249.98C215.228,249.5 214.258,249.07 213.298,248.66C202.018,243.73 189.658,240.61 177.128,239.49C167.998,238.66 158.768,238.48 149.718,239.05L121.008,47.14C116.968,20.02 93.738,0 66.958,0C64.868,0 62.778,0.12 60.668,0.37C33.488,3.52 6.838,20.2 1.628,44.01C-5.882,78.36 13.838,107.73 44.328,113.65C50.598,114.87 57.058,115.24 63.638,114.71L58.328,316.48L58.208,321.57L58.208,462.95L132.548,462.95L132.548,454.55L132.628,399.75L132.668,357.39C132.668,353.08 133.538,348.65 135.318,344.6C138.938,336.34 146.348,329.72 157.838,328.91C172.698,327.87 186.078,337.79 187.128,352.64C187.398,356.7 187.608,366.2 187.418,376.16L187.378,382.12L186.988,462.94L265.308,462.94L265.348,456.56L265.368,456.56L265.368,400.71C266.878,402.63 268.448,404.52 270.028,406.38C311.848,455.46 371.598,470.04 428.488,454.12C450.168,448.07 479.618,432.76 484.138,403.79C465.528,431.18 431.948,440.35 402.738,432.94L402.738,432.95ZM95.928,61.47C93.198,73.97 81.398,79.42 69.598,77.12C60.078,75.28 51.768,67.97 54.758,54.31C57.138,43.38 67.218,36.38 79.668,38.8C89.188,40.64 98.898,47.81 95.918,61.47L95.928,61.47Z"/>
</svg>
