<?xml version="1.0" encoding="UTF-8" standalone="no"?>
<!DOCTYPE svg PUBLIC "-//W3C//DTD SVG 1.1//EN" "http://www.w3.org/Graphics/SVG/1.1/DTD/svg11.dtd">
<svg width="100%" height="100%" viewBox="0 0 485 463" version="1.1" xmlns="http://www.w3.org/2000/svg" xmlns:xlink="http://www.w3.org/1999/xlink" xml:space="preserve" xmlns:serif="http://www.serif.com/" style="fill-rule:evenodd;clip-rule:evenodd;stroke-linejoin:round;stroke-miterlimit:2;">
    <g transform="matrix(1,0,0,1,-344.532,-276.65)">
        <path d="M747.27,709.6C718.06,702.19 692.76,680.68 671.62,655.94C646.59,626.65 625.64,590.91 600.05,561.68C588.5,548.51 576.01,536.65 561.77,527.31C561.42,527.08 561.05,526.85 560.69,526.63C559.76,526.15 558.79,525.72 557.83,525.31C546.55,520.38 534.19,517.26 521.66,516.14C512.53,515.31 503.3,515.13 494.25,515.7L465.54,323.79C461.5,296.67 438.27,276.65 411.49,276.65C409.4,276.65 407.31,276.77 405.2,277.02C378.02,280.17 351.37,296.85 346.16,320.66C338.65,355.01 357.88,384.38 388.37,390.3C394.64,391.52 401.1,391.89 407.68,391.36L402.86,593.13L402.74,598.22L402.74,739.6L477.08,739.6L477.08,731.2L477.16,676.4L477.2,634.04C477.2,629.73 478.07,625.3 479.85,621.25C483.47,612.99 490.88,606.37 502.37,605.56C517.23,604.52 530.61,614.44 531.66,629.29C531.93,633.35 532.14,642.85 531.95,652.81L531.91,658.77L531.52,739.59L609.84,739.59L609.88,733.21L609.9,733.21L609.9,677.36C611.41,679.28 612.98,681.17 614.56,683.03C656.38,732.11 716.13,746.69 773.02,730.77C794.7,724.72 824.15,709.41 828.67,680.44C810.06,707.83 776.48,717 747.27,709.59L747.27,709.6ZM440.46,338.12C437.73,350.62 425.93,356.07 414.13,353.77C404.61,351.93 396.3,344.62 399.29,330.96C401.67,320.03 411.75,313.03 424.2,315.45C433.72,317.29 443.43,324.46 440.45,338.12L440.46,338.12Z" style="fill:rgb(121,91,131);fill-rule:nonzero;"/>
    </g>
</svg>
