<?xml version="1.0" encoding="UTF-8"?>
<svg id="Layer_1" xmlns="http://www.w3.org/2000/svg" version="1.1" viewBox="0 0 1043.95 1061.95">
  <!-- Generator: Adobe Illustrator 29.8.1, SVG Export Plug-In . SVG Version: 2.1.1 Build 2)  -->
  <defs>
    <style>
      .st0 {
        fill: #7a5b83;
      }

      .st1 {
        fill: #f2ede4;
      }
    </style>
  </defs>
  <circle class="st1" cx="521.98" cy="530.98" r="469.33"/>
  <g>
    <path class="st0" d="M578.25,537.13c-5.38-4.06-11.28-7.58-17.56-10.5.37.21.74.45,1.08.68,14.24,9.34,26.73,21.2,38.28,34.37-5.69-9.81-13.1-17.99-21.8-24.55Z"/>
    <path class="st0" d="M747.27,709.6c-29.21-7.41-54.51-28.92-75.65-53.66-25.03-29.29-45.98-65.03-71.57-94.26-11.55-13.17-24.04-25.03-38.28-34.37-.35-.23-.72-.46-1.08-.68-.93-.48-1.9-.91-2.86-1.32-11.28-4.93-23.64-8.05-36.17-9.17-9.13-.83-18.36-1.01-27.41-.44l-28.71-191.91c-4.04-27.12-27.27-47.14-54.05-47.14-2.09,0-4.18.12-6.29.37-27.18,3.15-53.83,19.83-59.04,43.64-7.51,34.35,11.72,63.72,42.21,69.64,6.27,1.22,12.73,1.59,19.31,1.06l-4.82,201.77-.12,5.09v141.38h74.34v-8.4l.08-54.8.04-42.36c0-4.31.87-8.74,2.65-12.79,3.62-8.26,11.03-14.88,22.52-15.69,14.86-1.04,28.24,8.88,29.29,23.73.27,4.06.48,13.56.29,23.52l-.04,5.96-.39,80.82h78.32l.04-6.38h.02v-55.85c1.51,1.92,3.08,3.81,4.66,5.67,41.82,49.08,101.57,63.66,158.46,47.74,21.68-6.05,51.13-21.36,55.65-50.33-18.61,27.39-52.19,36.56-81.4,29.15ZM440.46,338.12c-2.73,12.5-14.53,17.95-26.33,15.65-9.52-1.84-17.83-9.15-14.84-22.81,2.38-10.93,12.46-17.93,24.91-15.51,9.52,1.84,19.23,9.01,16.25,22.67Z"/>
  </g>
</svg>