<?xml version="1.0" encoding="UTF-8" standalone="no"?>
<!DOCTYPE svg PUBLIC "-//W3C//DTD SVG 1.1//EN" "http://www.w3.org/Graphics/SVG/1.1/DTD/svg11.dtd">
<svg width="100%" height="100%" viewBox="0 0 1251 774" version="1.1" xmlns="http://www.w3.org/2000/svg" xmlns:xlink="http://www.w3.org/1999/xlink" xml:space="preserve" xmlns:serif="http://www.serif.com/" style="fill-rule:evenodd;clip-rule:evenodd;stroke-linejoin:round;stroke-miterlimit:2;">
    <g transform="matrix(1,0,0,1,-82,-49)">
        <path d="M226.43,815.04C198.21,815.04 168.74,806.74 145.5,789.72L172.48,747.39C189.08,759.84 211.08,768.97 228.51,768.97C240.55,768.97 249.68,764.82 249.68,756.52C249.68,747.81 241.38,745.31 221.04,739.92L208.17,736.6C197.38,734.11 189.08,731.2 181.61,727.89C161.27,719.59 145.09,704.65 145.09,679.75C145.09,634.93 189.91,610.86 233.49,610.86C266.69,610.86 293.25,622.48 308.19,634.93L281.63,674.77C267.52,664.39 251.33,656.09 232.24,656.09C221.86,656.09 211.49,658.99 211.49,668.13C211.9,675.19 220.62,678.92 228.92,681.41C236.81,683.9 245.11,685.56 254.24,688.05L266.28,690.95C297.41,698.42 320.23,716.27 320.23,747.81C320.23,787.65 278.31,815.04 226.44,815.04L226.43,815.04Z" style="fill:white;fill-rule:nonzero;"/>
        <path d="M447.81,694.3L447.4,690.98C446.16,678.94 442.42,671.89 436.61,667.32C430.8,663.17 423.33,661.51 413.78,662.34C400.08,663.58 381.82,670.23 359,683.92L334.93,640.34C364.81,620.83 395.52,611.7 422.91,608.8C456.11,605.89 484.33,615.03 500.93,634.95C505.91,641.59 510.47,649.06 512.97,659.02C515.04,664.42 516.29,673.96 517.12,682.26L527.91,798.46L460.26,804.69L458.19,790.99C443.66,805.52 425.82,812.99 407.56,814.65C372.28,817.97 337.84,800.12 334.1,757.79C330.78,723.34 356.51,693.05 401.75,688.9C417.11,687.66 433.29,689.31 447.82,694.3L447.81,694.3ZM423.74,727.08C410.46,728.32 399.26,736.62 400.5,749.91C401.74,763.61 414.2,769.42 427.06,768.17C440.34,766.93 453.62,758.62 452.38,744.93C451.14,731.65 436.61,726.26 423.74,727.09L423.74,727.08Z" style="fill:white;fill-rule:nonzero;"/>
        <path d="M903.87,682.23C897.23,680.16 888.51,677.66 877.31,677.66C862.78,677.66 853.24,683.47 848.26,691.77C844.52,698.41 842.86,705.88 842.86,715.43C842.86,717.09 842.86,718.75 843.27,730.79L845.76,812.96L773.96,815.03L767.74,622.05L834.56,619.56L837.05,642.39L837.46,642.39C851.99,623.71 869.83,612.92 890.58,612.92C898.47,612.92 906.35,614.58 915.07,617.49L903.86,682.23L903.87,682.23Z" style="fill:white;fill-rule:nonzero;"/>
        <path d="M942.44,609.61L1014.24,614.59L1006.77,714.19C1005.94,723.32 1005.52,732.04 1005.52,735.77C1005.52,749.47 1017.14,759.43 1030.84,759.43C1046.61,759.43 1054.91,746.98 1055.74,734.95L1064.04,618.33L1135.84,623.73L1127.54,733.29C1125.05,765.25 1110.52,787.66 1089.77,800.52C1074.41,810.07 1055.32,815.05 1036.23,815.05C1007.18,815.05 977.71,807.99 957.79,790.15C942.02,775.62 933.72,755.7 933.72,728.73C933.72,725.82 933.72,722.92 934.13,719.6L942.43,609.62L942.44,609.61Z" style="fill:white;fill-rule:nonzero;"/>
        <path d="M1246.1,815.04C1209.99,815.04 1169.32,800.1 1143.59,772.29L1178.04,735.77C1191.32,749.88 1217.05,768.55 1236.14,768.55C1246.1,768.55 1251.91,763.57 1251.91,756.93C1251.91,752.36 1248.59,748.21 1243.2,745.31C1237.39,741.99 1231.16,739.5 1227.02,737.42L1215.4,732.02C1205.02,727.45 1197.14,722.89 1190.91,718.74C1172.65,706.7 1163.1,693.84 1163.1,674.75C1163.1,635.74 1196.3,611.25 1239.88,611.25C1279.72,611.25 1315.83,630.34 1332.43,651.09L1299.23,685.54C1286.78,671.84 1264.78,656.07 1246.94,656.07C1237.81,656.07 1231.58,660.22 1231.58,666.86C1231.58,673.09 1239.05,677.65 1246.11,681.39C1253.17,685.13 1261.05,688.45 1270.18,693.01L1280.97,698.41C1293.42,704.64 1309.61,714.59 1317.49,728.71C1321.64,735.77 1324.13,743.24 1324.13,753.2C1324.13,790.97 1288.02,815.04 1246.11,815.04L1246.1,815.04Z" style="fill:white;fill-rule:nonzero;"/>
        <path d="M543.52,618.17L615.48,616.67L617,716.54C617,725.71 617.36,734.43 617.7,738.15C618.93,751.79 631.4,760.66 645.04,759.43C660.75,758.01 667.89,744.86 667.64,732.8L665.42,615.91L737.41,614.83L739,724.7C739.39,756.75 726.94,780.38 707.43,795.06C693,805.95 674.43,812.63 655.42,814.34C626.49,816.95 596.5,812.58 575.06,796.59C558.05,783.54 547.99,764.45 545.56,737.58C545.3,734.69 545.04,731.79 545.15,728.45L543.53,618.17L543.52,618.17Z" style="fill:white;fill-rule:nonzero;"/>
    </g>
    <g transform="matrix(1,0,0,1,-82,-49)">
        <path d="M384.84,272.67L285.14,281.89L309.18,556.48L217.83,564.64L194.27,289.98L93.95,298.29L86.93,219.78L377.8,194.16L384.82,272.67L384.84,272.67Z" style="fill:white;fill-rule:nonzero;"/>
    </g>
    <g transform="matrix(1,0,0,1,-82,-49)">
        <path d="M1220.17,419.75C1220.67,416.78 1221.16,412.32 1221.16,408.36C1221.16,397.96 1218.68,391.02 1213.73,385.57C1205.8,377.15 1192.92,373.68 1180.54,373.68C1164.69,373.68 1143.88,377.64 1119.11,387.05L1101.28,330.08C1131.5,317.7 1161.22,312.74 1190.94,312.74C1244.44,312.74 1305.37,337.01 1305.37,400.42C1305.37,406.86 1304.38,414.79 1303.88,421.72L1289.52,560.42L1209.76,552L1209.76,535.65C1192.92,546.55 1174.09,551.5 1155.77,551.5C1114.65,551.5 1071.56,524.75 1071.56,476.7C1071.56,433.11 1108.71,401.9 1154.78,401.9C1177.07,401.9 1199.36,407.85 1220.17,419.74L1220.17,419.75ZM1180.54,452.45C1166.17,452.45 1151.81,459.39 1151.81,476.72C1151.81,490.59 1164.2,501.49 1183.02,501.49C1197.39,501.49 1213.73,495.05 1213.73,477.71C1213.73,461.86 1198.37,452.45 1180.54,452.45Z" style="fill:white;fill-rule:nonzero;"/>
    </g>
    <g transform="matrix(1,0,0,1,-82,-49)">
        <path d="M1068.72,401.92C1060.79,399.44 1050.39,396.47 1037.02,396.47C1019.68,396.47 1008.29,403.41 1002.34,413.31C997.88,421.24 995.9,430.15 995.9,441.55C995.9,443.53 995.9,445.51 996.4,459.88L999.37,557.97L913.67,560.45L906.24,330.1L986,327.13L988.97,354.38L989.47,354.38C1006.81,332.09 1028.11,319.21 1052.88,319.21C1062.29,319.21 1071.7,321.19 1082.11,324.66L1068.73,401.94L1068.72,401.92Z" style="fill:white;fill-rule:nonzero;"/>
    </g>
    <g transform="matrix(1,0,0,1,-82,-49)">
        <path d="M606.97,338.34C601.09,333.9 594.61,330.04 587.75,326.82C588.14,327.05 588.51,327.3 588.89,327.55C604.52,337.81 618.22,350.82 630.9,365.29C624.66,354.54 616.54,345.54 606.97,338.34Z" style="fill:white;fill-rule:nonzero;"/>
        <path d="M792.38,527.52C760.35,519.4 732.6,495.81 709.4,468.66C681.95,436.54 658.97,397.36 630.9,365.29C627.371,361.259 623.761,357.342 620.051,353.566C618.028,351.506 615.975,349.489 613.889,347.517C612.545,346.248 611.188,344.997 609.817,343.767C603.207,337.84 596.262,332.389 588.89,327.55C588.52,327.3 588.14,327.05 587.75,326.82C586.7,326.3 585.63,325.82 584.57,325.38C572.18,319.98 558.63,316.56 544.89,315.32C534.86,314.41 524.75,314.22 514.81,314.84L483.33,104.33C478.89,74.57 453.39,52.62 423.99,52.62C421.73,52.62 419.44,52.74 417.15,53.01C387.34,56.48 358.1,74.77 352.39,100.88C344.16,138.57 365.24,170.78 398.68,177.27C405.56,178.62 412.65,179.01 419.87,178.44L414.57,399.78L414.45,405.34L414.45,560.44L495.99,560.44L495.99,551.23L496.08,491.11L496.13,444.64C496.13,439.91 497.07,435.06 499.03,430.61C502.99,421.56 511.12,414.29 523.72,413.4C540.02,412.26 554.71,423.14 555.86,439.44C556.14,443.9 556.38,454.32 556.18,465.23L556.13,471.77L555.7,560.42L641.62,560.42L641.67,553.42L641.69,553.42L641.69,492.2C643.36,494.3 645.07,496.34 646.79,498.37C692.69,552.22 758.22,568.22 820.63,550.76C844.4,544.09 876.72,527.33 881.68,495.53C861.25,525.59 824.44,535.65 792.39,527.51L792.38,527.52ZM455.83,120.03C452.84,133.74 439.88,139.73 426.94,137.2C416.5,135.19 407.39,127.16 410.67,112.19C413.28,100.19 424.34,92.51 437.99,95.16C448.43,97.19 459.09,105.06 455.82,120.03L455.83,120.03Z" style="fill:white;fill-rule:nonzero;"/>
        <path d="M673.77,397.26C686.37,413.61 698.79,430.1 711.02,446.73C711.53,447.42 712.04,448.12 712.55,448.82L722.76,449.33L885.65,446.41C885.03,429.51 884.72,423.06 883.92,416.67C874.32,339.99 815.2,298.47 743.44,307.45C700.28,312.85 668,336.41 650.65,368.84C658.37,378.34 666.39,387.69 673.76,397.26L673.77,397.26ZM756.23,365.77C777.37,363.12 793.22,374.12 798.82,402.87L722.63,404.42C725.63,380.58 740.01,367.8 756.23,365.77Z" style="fill:white;fill-rule:nonzero;"/>
    </g>
</svg>
